<?xml version="1.0" standalone="no"?>
<!DOCTYPE svg PUBLIC "-//W3C//DTD SVG 20010904//EN"
 "http://www.w3.org/TR/2001/REC-SVG-20010904/DTD/svg10.dtd">
<svg version="1.0" xmlns="http://www.w3.org/2000/svg"
 width="1234.000000pt" height="1046.000000pt" viewBox="0 0 1234.000000 1046.000000"
 preserveAspectRatio="xMidYMid meet">

<g transform="translate(0.000000,1046.000000) scale(0.100000,-0.100000)"
fill="#000000" stroke="none">
<path d="M6166 10408 l27 -53 -12 -735 c-12 -788 -19 -1300 -30 -2154 l-6
-539 -35 -25 c-72 -53 -208 -199 -248 -267 -35 -60 -73 -168 -96 -277 -8 -34
-46 -48 -156 -55 -192 -13 -603 62 -777 142 -64 29 -66 23 -18 -72 38 -76 118
-170 195 -229 27 -21 50 -41 50 -44 0 -7 -195 -69 -297 -95 -108 -27 -254 -45
-365 -45 -60 0 -108 -4 -108 -8 0 -9 135 -99 188 -126 19 -10 71 -32 117 -50
l84 -32 -122 -81 c-351 -234 -628 -518 -827 -848 -39 -66 -76 -119 -82 -117
-6 1 -33 22 -60 45 -66 55 -181 199 -297 372 -189 280 -271 358 -402 381 -97
16 -420 -122 -884 -377 -230 -126 -453 -239 -474 -239 -11 0 -42 5 -69 11 -49
10 -51 12 -143 142 -148 207 -275 325 -470 435 -131 74 -289 109 -289 64 0
-81 304 -338 625 -530 159 -94 249 -133 321 -139 70 -6 18 -26 604 235 474
211 681 283 765 268 64 -12 125 -87 270 -331 158 -267 221 -354 336 -466 l89
-86 -19 -54 c-10 -30 -26 -89 -36 -131 -11 -44 -24 -78 -31 -78 -37 0 -223 88
-330 156 -33 21 -149 101 -259 179 -354 251 -481 306 -605 261 -106 -37 -283
-190 -716 -618 -188 -186 -354 -342 -368 -348 -62 -23 -75 -17 -286 132 -206
145 -503 250 -715 250 -76 1 -125 -12 -125 -32 0 -15 58 -64 121 -102 198
-120 758 -284 940 -276 93 4 84 -3 444 313 416 364 666 557 742 571 73 14 171
-39 365 -196 251 -202 354 -282 443 -341 95 -64 222 -129 291 -149 l41 -12 6
-157 c4 -86 10 -168 13 -183 l6 -28 -61 0 c-147 0 -274 31 -647 155 -155 52
-321 101 -370 111 -110 20 -203 15 -261 -15 -100 -51 -223 -238 -559 -854 -96
-175 -187 -338 -204 -361 -48 -71 -61 -73 -251 -31 -288 64 -467 63 -699 -2
-121 -34 -230 -102 -230 -143 0 -26 27 -30 196 -30 248 0 722 60 879 112 88
28 126 66 221 219 325 520 481 753 594 887 81 96 99 107 173 105 82 -2 181
-35 451 -148 358 -150 591 -215 765 -215 40 0 53 -4 58 -17 3 -10 21 -58 40
-106 l34 -88 -32 -37 c-85 -97 -228 -192 -545 -363 -331 -177 -433 -251 -486
-351 -18 -35 -22 -57 -21 -118 3 -144 52 -328 245 -910 131 -397 146 -458 120
-507 -6 -10 -55 -43 -109 -73 -149 -81 -241 -137 -314 -191 -132 -97 -307
-304 -362 -427 -35 -77 -33 -98 10 -96 75 4 255 145 467 365 215 224 346 411
346 494 0 17 -18 100 -40 185 -201 774 -238 940 -247 1092 -5 85 -3 100 14
128 43 67 142 126 438 260 253 114 433 210 525 279 47 35 89 65 95 67 5 2 23
-17 40 -43 43 -70 162 -209 242 -284 213 -201 450 -335 789 -448 581 -193
1261 -239 1914 -130 675 112 1307 430 1719 865 l73 76 23 -18 c169 -137 293
-211 569 -334 383 -173 487 -237 515 -317 13 -36 13 -55 -2 -160 -24 -165 -83
-424 -182 -798 -107 -403 -108 -411 -90 -472 51 -171 533 -680 746 -788 65
-34 89 -33 89 3 -1 114 -241 407 -450 549 -25 17 -108 65 -185 108 -77 42
-150 88 -162 101 -42 46 -33 83 116 537 276 838 291 940 161 1080 -55 60 -157
129 -320 217 -299 161 -359 195 -455 258 -55 36 -135 100 -178 142 l-78 76 29
65 c16 35 34 80 41 99 l11 35 55 -3 c175 -11 411 54 820 228 275 116 395 149
469 129 75 -21 232 -226 507 -660 297 -471 315 -496 361 -520 127 -65 634
-139 952 -139 139 0 196 9 196 29 0 17 -62 72 -109 95 -57 29 -158 61 -243 76
-187 35 -346 29 -562 -20 -220 -49 -201 -49 -249 2 -25 26 -83 119 -141 229
-412 763 -557 984 -673 1023 -110 37 -217 18 -603 -109 -404 -133 -522 -160
-670 -153 l-65 3 -1 134 c-1 73 -4 150 -8 171 l-6 37 63 18 c165 45 345 155
617 376 384 312 470 360 566 311 115 -59 335 -234 759 -606 143 -125 278 -237
300 -248 35 -18 51 -20 140 -15 198 12 636 144 855 258 85 44 150 94 150 114
0 26 -43 39 -125 37 -219 -3 -506 -106 -725 -260 -207 -146 -222 -152 -289
-111 -18 11 -185 170 -370 353 -602 595 -684 652 -862 600 -82 -24 -210 -95
-344 -191 -209 -150 -387 -269 -466 -312 -81 -44 -210 -94 -270 -105 l-36 -6
-27 97 c-44 155 -44 144 11 183 144 102 256 243 433 540 168 283 228 350 315
350 87 0 347 -100 862 -331 429 -192 402 -182 471 -177 100 7 310 120 567 303
230 164 375 305 375 364 0 23 -2 24 -66 18 -108 -8 -307 -114 -456 -244 -79
-68 -138 -137 -245 -288 -76 -106 -81 -110 -131 -124 -74 -20 -100 -10 -377
140 -513 277 -840 432 -969 459 -64 13 -119 4 -185 -30 -59 -29 -168 -154
-270 -305 -181 -269 -288 -394 -406 -475 -24 -16 -46 -30 -49 -30 -3 0 -20 28
-37 62 -141 279 -405 592 -666 788 -62 47 -113 87 -113 91 0 3 35 11 77 18
179 30 310 90 416 190 104 98 104 97 -16 97 -130 0 -225 24 -445 108 -198 76
-279 101 -370 117 l-67 12 84 28 c46 16 136 40 200 54 64 14 127 28 141 31 25
6 25 6 5 21 -71 53 -284 136 -435 169 -41 9 -141 18 -222 21 -82 3 -148 8
-148 10 0 6 26 27 167 135 102 77 111 87 91 94 -44 14 -349 8 -443 -9 -172
-31 -308 -89 -431 -183 -39 -30 -73 -54 -76 -54 -6 0 -1 94 7 140 17 91 95
247 186 366 28 37 48 68 47 70 -7 6 -200 -37 -251 -56 -29 -11 -53 -20 -54
-20 -1 0 0 15 2 33 2 17 7 307 9 642 3 336 13 1080 22 1655 l16 1045 28 68 28
67 -79 0 -79 0 26 -52z m-481 -5228 c155 -40 282 -116 394 -236 72 -76 113
-137 168 -247 20 -43 40 -77 43 -76 3 0 32 34 64 76 75 95 157 161 271 218
145 73 292 92 453 59 351 -72 701 -422 836 -837 46 -142 59 -223 59 -367 0
-150 -18 -235 -71 -351 -121 -265 -422 -435 -808 -456 -344 -18 -665 136 -849
409 l-32 49 -66 -83 c-236 -298 -599 -446 -1002 -410 -428 39 -759 225 -900
506 -70 140 -80 191 -80 396 1 146 4 189 23 263 106 423 412 805 797 993 117
57 248 99 355 114 93 13 252 4 345 -20z"/>
<path d="M5333 3836 c-47 -15 -113 -54 -113 -66 0 -4 12 -15 26 -25 14 -9 37
-42 51 -72 21 -46 25 -65 20 -110 -12 -117 -101 -199 -189 -176 -44 12 -45 10
-22 -68 63 -211 258 -313 431 -226 64 33 117 93 157 176 29 63 31 72 31 186 0
114 -2 123 -31 186 -18 37 -48 85 -69 107 -71 80 -200 118 -292 88z"/>
<path d="M6815 3831 c-51 -13 -91 -39 -134 -87 -148 -169 -98 -478 93 -565
156 -71 345 57 372 252 l6 44 -45 0 c-119 0 -183 147 -115 267 30 55 27 61
-48 84 -51 15 -82 16 -129 5z"/>
</g>
</svg>
